<?xml version="1.0" standalone="no"?>
<!DOCTYPE svg PUBLIC "-//W3C//DTD SVG 20010904//EN"
 "http://www.w3.org/TR/2001/REC-SVG-20010904/DTD/svg10.dtd">
<svg version="1.0" xmlns="http://www.w3.org/2000/svg"
 width="500.000000pt" height="500.000000pt" viewBox="0 0 500.000000 500.000000"
 preserveAspectRatio="xMidYMid meet">
<metadata>
Created by potrace 1.14, written by Peter Selinger 2001-2017
</metadata>
<g transform="translate(0.000000,500.000000) scale(0.100000,-0.100000)"
fill="#000000" stroke="none">
<path d="M0 2500 l0 -2500 2500 0 2500 0 0 2500 0 2500 -2500 0 -2500 0 0
-2500z m3105 1500 l-160 -160 -740 -2 -740 -3 -5 -100 -5 -100 -155 0 -155 0
-3 263 -2 262 1062 0 1063 0 -160 -160z m-25 -1785 l-165 -165 -433 2 -432 3
0 -435 0 -435 -157 -157 c-87 -87 -161 -158 -165 -158 -10 0 -11 1494 -1 1503
3 4 346 7 762 7 l756 0 -165 -165z"/>
</g>
</svg>
